<svg xmlns="http://www.w3.org/2000/svg" x="0px" y="0px"
width="48" height="48"
viewBox="0 0 172 172"
style=" fill:#000000;"><g fill="none" fill-rule="nonzero" stroke="none" stroke-width="1" stroke-linecap="butt" stroke-linejoin="miter" stroke-miterlimit="10" stroke-dasharray="" stroke-dashoffset="0" font-family="none" font-weight="none" font-size="none" text-anchor="none" style="mix-blend-mode: normal"><path d="M0,172v-172h172v172z" fill="none"></path><g fill="#9777a8"><path d="M98.40281,103.9525c0,9.68844 -2.05594,15.46656 -5.50938,15.46656c-3.60125,0 -5.75125,-5.73781 -5.75125,-15.34563c0,-3.58781 0.40313,-15.33219 5.68406,-15.33219c5.17344,0 5.57656,11.65031 5.57656,15.21125zM151.36,50.22938v121.77062h-130.72v-172h80.49063zM50.47125,83.51406h-6.22156v29.21312c0,6.18125 -1.92156,6.69188 -4.23281,6.69188c-0.81969,0 -1.47813,-0.06719 -1.92156,-0.20156l-0.98094,-0.29562l-0.59125,5.4825l0.61812,0.24187c0.80625,0.30906 1.89469,0.45688 3.225,0.45688c6.89344,0 10.105,-3.93719 10.105,-12.42969zM75.85469,113.09c0,-4.77031 -2.29781,-8.58656 -7.2025,-12.05344c-3.85656,-2.78156 -5.42875,-4.03125 -5.42875,-7.43094c0,-2.28438 1.51844,-4.74344 4.86438,-4.74344c2.2575,0 3.68187,0.83313 4.17906,1.1825l1.00781,0.71219l1.53188,-5.60344l-0.47031,-0.36281c-1.08844,-0.80625 -3.35937,-1.62594 -6.02,-1.62594c-6.62469,0 -11.26062,4.60906 -11.26062,11.20688c0,4.17906 2.62031,8.08937 7.76687,11.62344c3.07719,2.32469 4.86438,4.28656 4.86438,7.49813c0,3.57437 -2.20375,5.805 -5.75125,5.805c-1.69313,0 -3.95063,-0.63156 -5.11969,-1.42438l-1.02125,-0.69875l-1.43781,5.61688l0.47031,0.34937c1.23625,0.91375 4.24625,1.85438 7.10844,1.85438c7.01437,0 11.91906,-4.90469 11.91906,-11.90563zM104.79906,103.79125c0,-12.99406 -4.35375,-20.7475 -11.62344,-20.7475c-7.67281,0 -12.42969,8.03563 -12.42969,20.97594c0,13.20906 4.4075,21.08344 11.78469,21.08344c4.58219,0 12.26844,-2.76813 12.26844,-21.31188zM133.27313,83.51406h-5.75125v14.9425c0,4.48812 0.06719,8.31781 0.24187,12.52375c-0.84656,-2.32469 -1.76031,-4.70313 -2.60687,-6.90688l-8.0625,-20.55937h-5.65719v41.13219h5.75125v-14.48562c0,-5.2675 -0.04031,-9.15094 -0.16125,-12.56406c0.83313,2.39187 1.78719,4.87781 2.88906,7.55187l7.69969,19.49781h5.65719zM143.10938,51.6l-43.34938,-43.34937v43.34937z"></path></g></g></svg>