<svg xmlns="http://www.w3.org/2000/svg" xmlns:xlink="http://www.w3.org/1999/xlink" viewBox="0 0 197.52 40.28"><defs><linearGradient id="a" x1="498.3" y1="523.99" x2="498.3" y2="525.57" gradientTransform="matrix(25.21, 0, 0, -25.19, -12128.06, 13731.86)" gradientUnits="userSpaceOnUse"><stop offset="0" stop-color="#0052cc"/><stop offset="1" stop-color="#2684ff"/></linearGradient></defs><title>Trello logo</title><path d="M448.16,491.86H417.95a4.71,4.71,0,0,0-4.71,4.7v30.17a4.71,4.71,0,0,0,4.71,4.73h30.21a4.71,4.71,0,0,0,4.7-4.73V496.57A4.71,4.71,0,0,0,448.16,491.86Zm-17.83,28.53a1.57,1.57,0,0,1-1.59,1.57h-6.6a1.57,1.57,0,0,1-1.56-1.57V500.74a1.57,1.57,0,0,1,1.56-1.57h6.6a1.57,1.57,0,0,1,1.57,1.57Zm15.24-9a1.57,1.57,0,0,1-1.59,1.57h-6.6a1.57,1.57,0,0,1-1.57-1.57V500.74a1.57,1.57,0,0,1,1.57-1.57H444a1.57,1.57,0,0,1,1.56,1.57Z" transform="translate(-413.24 -491.86)" style="fill:url(#a)"/><path d="M495.35,494.76v7.66h-9.07v29h-8.75v-29h-9.07v-7.66Z" transform="translate(-413.24 -491.86)" style="fill:#293856"/><path d="M506.49,531.47H498.4V502.9h8.09v5.47c1.54-3.85,4-6.15,8.37-5.87V511c-5.71-.44-8.37,1-8.37,5.53Z" transform="translate(-413.24 -491.86)" style="fill:#293856"/><path d="M559,531.69c-5.3,0-8.63-2.54-8.63-8.55V491.86h8.15V522c0,1.73,1.14,2.35,2.54,2.35a8.94,8.94,0,0,0,1.21-.06v7A11.9,11.9,0,0,1,559,531.69Z" transform="translate(-413.24 -491.86)" style="fill:#293856"/><path d="M576,531.69c-5.3,0-8.64-2.54-8.64-8.55V491.86h8.15V522c0,1.73,1.15,2.35,2.57,2.35a8.8,8.8,0,0,0,1.2-.06v7A11.85,11.85,0,0,1,576,531.69Z" transform="translate(-413.24 -491.86)" style="fill:#293856"/><path d="M583.21,517.17c0-8.82,5.08-14.86,13.83-14.86s13.72,6,13.72,14.86-5,15-13.72,15S583.21,525.94,583.21,517.17Zm7.93,0c0,4.3,1.8,7.71,5.9,7.71s5.8-3.41,5.8-7.71-1.75-7.62-5.8-7.62S591.14,512.86,591.14,517.17Z" transform="translate(-413.24 -491.86)" style="fill:#293856"/><path d="M525.78,519.75a67.2,67.2,0,0,0,6.82.4c6.2,0,11.43-1.66,11.43-7.66,0-5.82-5.38-10.2-11.85-10.2-8.71,0-14.29,6.32-14.29,15.14,0,9.16,4.81,14.6,15.69,14.6a26.08,26.08,0,0,0,9.45-1.69V523.5a30.38,30.38,0,0,1-9.16,1.78C529.53,525.29,526.51,523.87,525.78,519.75ZM532,508.53a3.86,3.86,0,0,1,4.13,3.68c0,2.74-2.89,3.59-6.22,3.59a28.37,28.37,0,0,1-4.23-.34,9.62,9.62,0,0,1,1.12-3.81,6,6,0,0,1,5.19-3.12Z" transform="translate(-413.24 -491.86)" style="fill:#293856"/></svg>